<svg width="749" height="428" viewBox="0 0 749 428" fill="none" xmlns="http://www.w3.org/2000/svg">
<g opacity="0.1">
<g style="mix-blend-mode:multiply" opacity="0.33">
<path d="M385.784 17.8076C392.614 17.8076 395.929 19.1386 397.77 21.8154C398.716 23.1925 399.328 24.9994 399.757 27.3506C400.186 29.7017 400.421 32.5271 400.659 35.9111C401.138 42.7235 402.695 51.1031 405.663 57.4521C407.147 60.6253 409.013 63.358 411.335 65.1143C413.688 66.8938 416.487 67.6509 419.71 66.8789C425.618 65.4636 431.394 64.7931 436.182 66.0732C440.891 67.3327 444.727 70.5004 446.786 77.0088C448.908 83.717 451.094 90.5017 455.288 94.8887C457.411 97.1093 460.049 98.7216 463.431 99.4189C466.798 100.113 470.853 99.8908 475.806 98.5342C480.608 97.2188 483.964 97.0946 486.409 97.6738C488.822 98.2455 490.425 99.5197 491.701 101.182C493.008 102.883 493.943 104.942 495.052 107.125C496.14 109.268 497.38 111.49 499.27 113.282C502.841 116.669 506.145 119.435 510.044 120.964C513.975 122.505 518.428 122.761 524.255 121.307C527.147 120.585 529.019 119.906 530.431 119.378C531.862 118.842 532.71 118.509 533.663 118.39C534.592 118.274 535.671 118.36 537.5 118.806C539.335 119.253 541.86 120.043 545.666 121.29C553.266 123.779 558.296 125.713 562.366 128.194C566.415 130.663 569.554 133.699 573.319 138.456V138.455L573.645 138.866C577.287 143.47 579.986 146.908 583.601 148.714C587.273 150.548 591.757 150.649 598.839 149.059C605.94 147.464 609.053 147.994 610.999 149.489C612 150.259 612.768 151.336 613.604 152.737C614.42 154.103 615.321 155.815 616.521 157.613C618.868 161.127 621.877 166.077 625.045 170.238C626.634 172.325 628.288 174.25 629.955 175.729C631.61 177.196 633.35 178.289 635.112 178.594C636.772 178.88 638.349 178.781 639.902 178.601C641.486 178.416 642.988 178.159 644.677 178.071C647.963 177.902 651.838 178.396 657.158 181.687C659.902 183.384 661.904 184.525 663.422 185.406C664.952 186.295 665.954 186.899 666.761 187.545C668.335 188.805 669.212 190.25 671.608 194.556C673.993 198.841 676.335 202.296 679.973 204.503C683.621 206.716 688.448 207.603 695.657 207.063C702.826 206.527 706.558 206.555 709.094 207.504C711.55 208.423 712.967 210.24 715.358 213.821C717.767 217.428 722.712 223.399 728.366 226.995C731.196 228.795 734.275 230.045 737.348 230.039C740.462 230.033 743.472 228.735 746.106 225.636L746.287 225.423C756.19 213.772 767.132 200.916 771.914 186.953C774.314 179.947 776.764 171.719 780.113 166.306C781.786 163.601 783.599 161.747 785.605 161.039C787.546 160.354 789.868 160.678 792.758 162.797C798.72 167.17 802.105 172.529 805.608 176.633C807.335 178.656 809.112 180.388 811.245 181.387C813.413 182.402 815.873 182.623 818.886 181.777C821.783 180.964 824.159 180.203 826.354 179.637C828.525 179.077 830.401 178.741 832.191 178.783C835.701 178.865 839.078 180.4 843.753 185.125C844.933 186.318 845.996 187.445 846.984 188.499C847.97 189.55 848.888 190.535 849.765 191.427C851.515 193.207 853.157 194.68 854.989 195.673C858.742 197.707 863.062 197.617 870.27 194.919C877.365 192.263 881.308 191.814 884.486 192.758C886.084 193.232 887.542 194.074 889.151 195.263C890.775 196.461 892.491 197.965 894.653 199.764C896.802 201.551 898.31 202.856 899.529 203.876C900.721 204.874 901.613 205.58 902.417 206.062C903.934 206.97 905.127 207.056 907.192 207.064V426.386H-182.192V234.875C-179.974 233.837 -176.539 232.43 -172.931 231.347C-169.034 230.177 -165.06 229.424 -162.204 229.825C-158.549 230.338 -155.087 231.884 -151.796 233.732C-150.152 234.656 -148.563 235.646 -147.018 236.614C-145.478 237.578 -143.975 238.523 -142.529 239.335C-136.395 242.779 -128.419 240.395 -120.307 235.036C-112.565 229.922 -104.34 230.876 -93.9717 235.11C-88.5396 237.328 -84.039 236.257 -80.5508 234.155C-77.1047 232.078 -74.6425 228.994 -73.1924 227.183L-73.0791 227.041C-71.7332 225.362 -67.6113 221.673 -62.3545 220.566C-59.7492 220.018 -56.87 220.103 -53.8906 221.375C-50.9064 222.649 -47.7633 225.138 -44.6787 229.492C-41.4746 234.015 -38.3009 236.749 -35.2412 238.209C-32.1684 239.675 -29.2608 239.833 -26.6514 239.288C-21.5051 238.214 -17.5305 234.393 -15.6924 232.845C-14.9003 232.178 -13.6084 231.678 -11.9258 231.371C-10.2614 231.068 -8.30201 230.968 -6.26074 231.033C-2.16823 231.164 2.13699 231.954 4.88672 232.983C7.79482 234.072 11.9682 235.184 16.4199 234.721C20.9042 234.254 25.6258 232.193 29.5703 227.025C33.1974 222.273 38.6696 220.108 44.2305 219.013C47.0055 218.466 49.7758 218.19 52.3145 217.985C54.8292 217.782 57.1664 217.645 58.9844 217.373C62.4484 216.854 65.9389 216.659 69.2627 215.323C72.6569 213.959 75.8708 211.428 79.0332 206.328C82.0485 201.466 85.4504 198.806 89.3252 197.977C93.2232 197.143 97.7742 198.123 103.157 200.927C108.893 203.914 115.108 203.337 120.336 200.804C125.551 198.277 129.861 193.774 131.842 188.768C133.64 184.225 137.006 181.588 141.315 179.408C143.479 178.314 145.852 177.348 148.371 176.311C150.88 175.277 153.521 174.176 156.167 172.825C161.38 170.164 164.954 168.239 167.976 164.961C170.993 161.688 173.414 157.121 176.509 149.279C178.03 145.424 180.012 141.83 182.282 138.999C184.56 136.158 187.08 134.146 189.658 133.345C192.188 132.559 194.86 132.91 197.589 134.969C200.356 137.056 203.196 140.915 205.902 147.169C211.368 159.801 215.115 165.839 219.737 169.577C222.05 171.447 224.551 172.716 227.514 173.957C228.993 174.577 230.599 175.194 232.357 175.874C234.119 176.555 236.042 177.302 238.17 178.188L238.776 178.44C242.961 180.181 246.836 181.794 250.359 182.954C253.879 184.113 257.114 184.845 260.021 184.784C262.954 184.723 265.562 183.852 267.768 181.821C269.952 179.81 271.677 176.719 272.991 172.338C275.61 163.605 278.315 155.174 282.228 148.922C286.118 142.706 291.122 138.762 298.352 138.762C302.126 138.762 305.241 138.807 307.877 138.541C310.535 138.272 312.781 137.681 314.826 136.365C316.866 135.053 318.636 133.065 320.425 130.119C322.211 127.178 324.042 123.239 326.185 117.981C328.327 112.724 329.919 108.818 331.353 105.88C332.787 102.939 334.025 101.049 335.425 99.7754C336.802 98.5221 338.392 97.8147 340.634 97.3564C342.907 96.8918 345.784 96.694 349.726 96.4258C353.618 96.1609 356.488 95.9143 358.62 95.2275C360.836 94.5138 362.289 93.3164 363.341 91.2246C364.352 89.2135 364.991 86.3745 365.701 82.4053C366.42 78.3849 367.214 73.1845 368.521 66.2422C369.832 59.2855 370.755 52.7304 371.615 46.833C372.477 40.9234 373.274 35.6914 374.333 31.332C375.395 26.9604 376.699 23.5646 378.518 21.2705C380.298 19.0245 382.592 17.8076 385.784 17.8076Z" fill="url(#paint0_linear_165_11509)"/>
<path d="M385.784 17.8076C392.614 17.8076 395.929 19.1386 397.77 21.8154C398.716 23.1925 399.328 24.9994 399.757 27.3506C400.186 29.7017 400.421 32.5271 400.659 35.9111C401.138 42.7235 402.695 51.1031 405.663 57.4521C407.147 60.6253 409.013 63.358 411.335 65.1143C413.688 66.8938 416.487 67.6509 419.71 66.8789C425.618 65.4636 431.394 64.7931 436.182 66.0732C440.891 67.3327 444.727 70.5004 446.786 77.0088C448.908 83.717 451.094 90.5017 455.288 94.8887C457.411 97.1093 460.049 98.7216 463.431 99.4189C466.798 100.113 470.853 99.8908 475.806 98.5342C480.608 97.2188 483.964 97.0946 486.409 97.6738C488.822 98.2455 490.425 99.5197 491.701 101.182C493.008 102.883 493.943 104.942 495.052 107.125C496.14 109.268 497.38 111.49 499.27 113.282C502.841 116.669 506.145 119.435 510.044 120.964C513.975 122.505 518.428 122.761 524.255 121.307C527.147 120.585 529.019 119.906 530.431 119.378C531.862 118.842 532.71 118.509 533.663 118.39C534.592 118.274 535.671 118.36 537.5 118.806C539.335 119.253 541.86 120.043 545.666 121.29C553.266 123.779 558.296 125.713 562.366 128.194C566.415 130.663 569.554 133.699 573.319 138.456V138.455L573.645 138.866C577.287 143.47 579.986 146.908 583.601 148.714C587.273 150.548 591.757 150.649 598.839 149.059C605.94 147.464 609.053 147.994 610.999 149.489C612 150.259 612.768 151.336 613.604 152.737C614.42 154.103 615.321 155.815 616.521 157.613C618.868 161.127 621.877 166.077 625.045 170.238C626.634 172.325 628.288 174.25 629.955 175.729C631.61 177.196 633.35 178.289 635.112 178.594C636.772 178.88 638.349 178.781 639.902 178.601C641.486 178.416 642.988 178.159 644.677 178.071C647.963 177.902 651.838 178.396 657.158 181.687C659.902 183.384 661.904 184.525 663.422 185.406C664.952 186.295 665.954 186.899 666.761 187.545C668.335 188.805 669.212 190.25 671.608 194.556C673.993 198.841 676.335 202.296 679.973 204.503C683.621 206.716 688.448 207.603 695.657 207.063C702.826 206.527 706.558 206.555 709.094 207.504C711.55 208.423 712.967 210.24 715.358 213.821C717.767 217.428 722.712 223.399 728.366 226.995C731.196 228.795 734.275 230.045 737.348 230.039C740.462 230.033 743.472 228.735 746.106 225.636L746.287 225.423C756.19 213.772 767.132 200.916 771.914 186.953C774.314 179.947 776.764 171.719 780.113 166.306C781.786 163.601 783.599 161.747 785.605 161.039C787.546 160.354 789.868 160.678 792.758 162.797C798.72 167.17 802.105 172.529 805.608 176.633C807.335 178.656 809.112 180.388 811.245 181.387C813.413 182.402 815.873 182.623 818.886 181.777C821.783 180.964 824.159 180.203 826.354 179.637C828.525 179.077 830.401 178.741 832.191 178.783C835.701 178.865 839.078 180.4 843.753 185.125C844.933 186.318 845.996 187.445 846.984 188.499C847.97 189.55 848.888 190.535 849.765 191.427C851.515 193.207 853.157 194.68 854.989 195.673C858.742 197.707 863.062 197.617 870.27 194.919C877.365 192.263 881.308 191.814 884.486 192.758C886.084 193.232 887.542 194.074 889.151 195.263C890.775 196.461 892.491 197.965 894.653 199.764C896.802 201.551 898.31 202.856 899.529 203.876C900.721 204.874 901.613 205.58 902.417 206.062C903.934 206.97 905.127 207.056 907.192 207.064V426.386H-182.192V234.875C-179.974 233.837 -176.539 232.43 -172.931 231.347C-169.034 230.177 -165.06 229.424 -162.204 229.825C-158.549 230.338 -155.087 231.884 -151.796 233.732C-150.152 234.656 -148.563 235.646 -147.018 236.614C-145.478 237.578 -143.975 238.523 -142.529 239.335C-136.395 242.779 -128.419 240.395 -120.307 235.036C-112.565 229.922 -104.34 230.876 -93.9717 235.11C-88.5396 237.328 -84.039 236.257 -80.5508 234.155C-77.1047 232.078 -74.6425 228.994 -73.1924 227.183L-73.0791 227.041C-71.7332 225.362 -67.6113 221.673 -62.3545 220.566C-59.7492 220.018 -56.87 220.103 -53.8906 221.375C-50.9064 222.649 -47.7633 225.138 -44.6787 229.492C-41.4746 234.015 -38.3009 236.749 -35.2412 238.209C-32.1684 239.675 -29.2608 239.833 -26.6514 239.288C-21.5051 238.214 -17.5305 234.393 -15.6924 232.845C-14.9003 232.178 -13.6084 231.678 -11.9258 231.371C-10.2614 231.068 -8.30201 230.968 -6.26074 231.033C-2.16823 231.164 2.13699 231.954 4.88672 232.983C7.79482 234.072 11.9682 235.184 16.4199 234.721C20.9042 234.254 25.6258 232.193 29.5703 227.025C33.1974 222.273 38.6696 220.108 44.2305 219.013C47.0055 218.466 49.7758 218.19 52.3145 217.985C54.8292 217.782 57.1664 217.645 58.9844 217.373C62.4484 216.854 65.9389 216.659 69.2627 215.323C72.6569 213.959 75.8708 211.428 79.0332 206.328C82.0485 201.466 85.4504 198.806 89.3252 197.977C93.2232 197.143 97.7742 198.123 103.157 200.927C108.893 203.914 115.108 203.337 120.336 200.804C125.551 198.277 129.861 193.774 131.842 188.768C133.64 184.225 137.006 181.588 141.315 179.408C143.479 178.314 145.852 177.348 148.371 176.311C150.88 175.277 153.521 174.176 156.167 172.825C161.38 170.164 164.954 168.239 167.976 164.961C170.993 161.688 173.414 157.121 176.509 149.279C178.03 145.424 180.012 141.83 182.282 138.999C184.56 136.158 187.08 134.146 189.658 133.345C192.188 132.559 194.86 132.91 197.589 134.969C200.356 137.056 203.196 140.915 205.902 147.169C211.368 159.801 215.115 165.839 219.737 169.577C222.05 171.447 224.551 172.716 227.514 173.957C228.993 174.577 230.599 175.194 232.357 175.874C234.119 176.555 236.042 177.302 238.17 178.188L238.776 178.44C242.961 180.181 246.836 181.794 250.359 182.954C253.879 184.113 257.114 184.845 260.021 184.784C262.954 184.723 265.562 183.852 267.768 181.821C269.952 179.81 271.677 176.719 272.991 172.338C275.61 163.605 278.315 155.174 282.228 148.922C286.118 142.706 291.122 138.762 298.352 138.762C302.126 138.762 305.241 138.807 307.877 138.541C310.535 138.272 312.781 137.681 314.826 136.365C316.866 135.053 318.636 133.065 320.425 130.119C322.211 127.178 324.042 123.239 326.185 117.981C328.327 112.724 329.919 108.818 331.353 105.88C332.787 102.939 334.025 101.049 335.425 99.7754C336.802 98.5221 338.392 97.8147 340.634 97.3564C342.907 96.8918 345.784 96.694 349.726 96.4258C353.618 96.1609 356.488 95.9143 358.62 95.2275C360.836 94.5138 362.289 93.3164 363.341 91.2246C364.352 89.2135 364.991 86.3745 365.701 82.4053C366.42 78.3849 367.214 73.1845 368.521 66.2422C369.832 59.2855 370.755 52.7304 371.615 46.833C372.477 40.9234 373.274 35.6914 374.333 31.332C375.395 26.9604 376.699 23.5646 378.518 21.2705C380.298 19.0245 382.592 17.8076 385.784 17.8076Z" stroke="#E2E8FF" stroke-width="1.61553"/>
</g>
<path d="M-164.722 216.67C-160.321 214.552 -150.011 210.528 -143.976 211.375C-136.432 212.435 -129.832 217.729 -124.174 220.906C-118.516 224.083 -110.973 221.965 -102.958 216.67C-94.9425 211.375 -86.4559 212.435 -76.0835 216.67C-65.711 220.906 -59.1103 212.435 -56.2815 208.905C-53.4526 205.375 -39.3256 193.726 -26.8229 211.375C-14.3202 229.024 -3.00474 217.729 0.767059 214.552C4.53886 211.375 16.3257 212.434 21.9835 214.552C27.6412 216.67 38.0136 218.788 45.5572 208.905C53.1008 199.021 68.1881 200.08 75.2602 199.021C82.3323 197.962 88.4615 198.315 94.5907 188.432C100.72 178.548 108.735 177.136 119.579 182.784C130.423 188.432 143.153 180.666 146.924 171.136C150.696 161.605 161.069 160.193 171.441 154.899C181.814 149.604 185.114 147.486 191.243 131.955C197.372 116.424 211.045 104.776 221.889 129.837C232.733 154.899 236.505 153.134 253.478 160.193C270.451 167.253 281.766 172.195 286.953 154.899C292.139 137.603 297.797 121.013 312.884 121.013C327.971 121.013 331.271 121.719 339.758 100.893C348.245 80.0671 348.245 80.0672 363.803 79.0083C379.362 77.9493 376.533 77.2433 381.719 49.711C386.906 22.1786 385.963 0.999999 399.635 1C413.308 1 414.251 6.29468 415.194 19.7079C416.137 33.1211 421.323 52.5347 433.11 49.711C444.897 46.8873 456.684 46.8873 460.927 60.3005C465.171 73.7137 469.414 86.4209 488.744 81.1262C508.075 75.8315 505.717 89.2447 512.79 95.9513C519.862 102.658 525.519 106.541 536.835 103.717C548.15 100.893 543.435 98.7752 558.523 103.717C573.61 108.659 578.796 111.482 586.34 121.013C593.883 130.543 596.712 134.426 610.856 131.249C625.001 128.072 624.529 133.014 629.244 140.074C633.959 147.133 641.031 159.488 647.16 160.546C653.289 161.605 658.475 157.017 669.319 163.723C680.163 170.43 679.22 168.312 683.935 176.784C688.65 185.255 692.893 189.844 707.037 188.785C721.182 187.726 722.596 188.785 727.311 195.844C732.026 202.904 746.641 219.141 756.542 207.493C766.443 195.844 777.287 183.137 782.002 169.371C786.717 155.605 791.882 136.191 803.915 145.015C815.948 153.84 817.834 166.9 829.15 163.723C840.465 160.546 845.18 157.723 854.609 167.253C864.039 176.784 865.925 182.078 880.069 176.784C894.213 171.489 896.571 174.666 905.057 181.725C913.544 188.785 912.601 188.785 917.787 188.785" stroke="#E2E8FF" stroke-width="2" stroke-linecap="round"/>
</g>
<defs>
<linearGradient id="paint0_linear_165_11509" x1="362.5" y1="102.437" x2="362.5" y2="388.164" gradientUnits="userSpaceOnUse">
<stop stop-color="#DDE4FF"/>
<stop offset="1" stop-color="#233D96"/>
</linearGradient>
</defs>
</svg>
