<svg width="749" height="224" viewBox="0 0 749 224" fill="none" xmlns="http://www.w3.org/2000/svg">
<path d="M-164.722 216.67C-160.321 214.552 -150.011 210.528 -143.976 211.375C-136.432 212.435 -129.832 217.729 -124.174 220.906C-118.516 224.083 -110.973 221.965 -102.958 216.67C-94.9425 211.375 -86.4559 212.435 -76.0835 216.67C-65.711 220.906 -59.1103 212.435 -56.2815 208.905C-53.4526 205.375 -39.3256 193.726 -26.8229 211.375C-14.3202 229.024 -3.00474 217.729 0.767059 214.552C4.53886 211.375 16.3257 212.434 21.9835 214.552C27.6412 216.67 38.0136 218.788 45.5572 208.905C53.1008 199.021 68.1881 200.08 75.2602 199.021C82.3323 197.962 88.4615 198.315 94.5907 188.432C100.72 178.548 108.735 177.136 119.579 182.784C130.423 188.432 143.153 180.666 146.924 171.136C150.696 161.605 161.069 160.193 171.441 154.899C181.814 149.604 185.114 147.486 191.243 131.955C197.372 116.424 211.045 104.776 221.889 129.837C232.733 154.899 236.505 153.134 253.478 160.193C270.451 167.253 281.766 172.195 286.953 154.899C292.139 137.603 297.797 121.013 312.884 121.013C327.971 121.013 331.271 121.719 339.758 100.893C348.245 80.0671 348.245 80.0672 363.803 79.0083C379.362 77.9493 376.533 77.2433 381.719 49.711C386.906 22.1786 385.963 0.999999 399.635 1C413.308 1 414.251 6.29468 415.194 19.7079C416.137 33.1211 421.323 52.5347 433.11 49.711C444.897 46.8873 456.684 46.8873 460.927 60.3005C465.171 73.7137 469.414 86.4209 488.744 81.1262C508.075 75.8315 505.717 89.2447 512.79 95.9513C519.862 102.658 525.519 106.541 536.835 103.717C548.15 100.893 543.435 98.7752 558.523 103.717C573.61 108.659 578.796 111.482 586.34 121.013C593.883 130.543 596.712 134.426 610.856 131.249C625.001 128.072 624.529 133.014 629.244 140.074C633.959 147.133 641.031 159.488 647.16 160.546C653.289 161.605 658.475 157.017 669.319 163.723C680.163 170.43 679.22 168.312 683.935 176.784C688.65 185.255 692.893 189.844 707.037 188.785C721.182 187.726 722.596 188.785 727.311 195.844C732.026 202.904 746.641 219.141 756.542 207.493C766.443 195.844 777.287 183.137 782.002 169.371C786.717 155.605 791.882 136.191 803.915 145.015C815.948 153.84 817.834 166.9 829.15 163.723C840.465 160.546 845.18 157.723 854.609 167.253C864.039 176.784 865.925 182.078 880.069 176.784C894.213 171.489 896.571 174.666 905.057 181.725C913.544 188.785 912.601 188.785 917.787 188.785" stroke="#E2E8FF" stroke-width="2" stroke-linecap="round"/>
</svg>
