<svg width="265" height="228" viewBox="0 0 265 228" fill="none" xmlns="http://www.w3.org/2000/svg">
<g opacity="0.1">
<path d="M58.8889 7.5753L0 79.1198L58.8889 101.323L93.2407 17.4435L58.8889 7.5753Z" fill="#2F82FF"/>
<path d="M93.2407 17.4435L58.8889 101.323H206.111L171.759 17.4435H93.2407Z" fill="#2F82FF"/>
<path d="M58.8889 101.323L132.5 227.143L206.111 101.323H58.8889Z" fill="#2F82FF"/>
<path d="M0 79.1198L132.5 227.143L58.8889 101.323L0 79.1198Z" fill="#2F82FF"/>
<path d="M132.5 227.143L265 79.1198L206.111 101.323L132.5 227.143Z" fill="#2F82FF"/>
<path d="M265 79.1198L206.111 7.5753L171.759 17.4435L206.111 101.323L265 79.1198Z" fill="#2F82FF"/>
<path d="M58.8889 7.5753L93.2407 17.4435H171.759L206.111 7.5753L132.5 0L58.8889 7.5753Z" fill="#2F82FF"/>
<path d="M58.8889 7.5753L0 79.1198L58.8889 101.323L93.2407 17.4435L58.8889 7.5753Z" fill="url(#paint0_linear_582_23205)" style="mix-blend-mode:soft-light"/>
<path d="M93.2407 17.4435L58.8889 101.323H206.111L171.759 17.4435H93.2407Z" fill="url(#paint1_linear_582_23205)" style="mix-blend-mode:plus-lighter"/>
<path d="M58.8889 101.323L132.5 227.143L206.111 101.323H58.8889Z" fill="url(#paint2_linear_582_23205)" style="mix-blend-mode:overlay"/>
<path d="M0 79.1198L132.5 227.143L58.8889 101.323L0 79.1198Z" fill="url(#paint3_linear_582_23205)" style="mix-blend-mode:soft-light"/>
<path d="M132.5 227.143L265 79.1198L206.111 101.323L132.5 227.143Z" fill="url(#paint4_linear_582_23205)" style="mix-blend-mode:overlay"/>
<path d="M265 79.1198L206.111 7.5753L171.759 17.4435L206.111 101.323L265 79.1198Z" fill="url(#paint5_linear_582_23205)" style="mix-blend-mode:soft-light"/>
<path d="M58.8889 7.5753L93.2407 17.4435H171.759L206.111 7.5753L132.5 0L58.8889 7.5753Z" fill="url(#paint6_linear_582_23205)" style="mix-blend-mode:soft-light"/>
</g>
<defs>
<linearGradient id="paint0_linear_582_23205" x1="92.75" y1="17.3697" x2="57.9263" y2="100.229" gradientUnits="userSpaceOnUse">
<stop stop-color="#494949"/>
<stop offset="1" stop-color="#E9E9E9"/>
</linearGradient>
<linearGradient id="paint1_linear_582_23205" x1="132.5" y1="14.8137" x2="132.5" y2="101.227" gradientUnits="userSpaceOnUse">
<stop stop-color="white" stop-opacity="0.8"/>
<stop offset="1" stop-color="white" stop-opacity="0"/>
</linearGradient>
<linearGradient id="paint2_linear_582_23205" x1="132.5" y1="101.227" x2="132.5" y2="227.143" gradientUnits="userSpaceOnUse">
<stop stop-color="#4C4C4C"/>
<stop offset="1" stop-color="#B8B8B8"/>
</linearGradient>
<linearGradient id="paint3_linear_582_23205" x1="58.8889" y1="101.227" x2="133.179" y2="226.741" gradientUnits="userSpaceOnUse">
<stop stop-color="#565656"/>
<stop offset="1" stop-color="#FAFAFA"/>
</linearGradient>
<linearGradient id="paint4_linear_582_23205" x1="208.513" y1="102.214" x2="131.962" y2="226.813" gradientUnits="userSpaceOnUse">
<stop stop-color="#323232"/>
<stop offset="1" stop-color="#9A9A9A"/>
</linearGradient>
<linearGradient id="paint5_linear_582_23205" x1="169.306" y1="12.3447" x2="206.501" y2="101.063" gradientUnits="userSpaceOnUse">
<stop stop-color="#494949"/>
<stop offset="1" stop-color="#999999"/>
</linearGradient>
<linearGradient id="paint6_linear_582_23205" x1="132.5" y1="2.6412" x2="132.5" y2="17.2826" gradientUnits="userSpaceOnUse">
<stop stop-color="#7C7C7C"/>
<stop offset="1" stop-color="white"/>
</linearGradient>
</defs>
</svg>
