<svg width="15" height="15" viewBox="0 0 15 15" fill="none" xmlns="http://www.w3.org/2000/svg">
<path d="M7.5001 1.2002H7.66373C9.62046 1.2002 10.5988 1.2002 11.2783 1.6789C11.4729 1.81605 11.6457 1.97871 11.7915 2.16193C12.3001 2.8014 12.3001 3.72221 12.3001 5.56383V7.0911C12.3001 8.86901 12.3001 9.75796 12.0187 10.4679C11.5664 11.6093 10.6098 12.5097 9.39708 12.9354C8.64272 13.2002 7.69821 13.2002 5.80919 13.2002C4.72975 13.2002 4.19003 13.2002 3.75896 13.0489C3.06597 12.8056 2.51935 12.2911 2.26088 11.6389C2.1001 11.2332 2.1001 10.7252 2.1001 9.70929V7.2002" stroke="#3A53C6" stroke-width="0.6" stroke-linecap="round" stroke-linejoin="round"/>
<path d="M12.3 7.2002C12.3 8.30477 11.4046 9.2002 10.3 9.2002C9.90058 9.2002 9.42963 9.1302 9.04123 9.23427C8.69614 9.32674 8.42659 9.59628 8.33412 9.94138C8.23005 10.3298 8.30005 10.8007 8.30005 11.2002C8.30005 12.3048 7.40462 13.2002 6.30005 13.2002" stroke="#3A53C6" stroke-width="0.6" stroke-linecap="round" stroke-linejoin="round"/>
<path d="M2.69995 2.7002C2.99487 2.39678 3.77981 1.2002 4.19995 1.2002M5.69995 2.7002C5.40503 2.39678 4.62009 1.2002 4.19995 1.2002M4.19995 1.2002L4.19995 6.0002" stroke="#3A53C6" stroke-width="0.6" stroke-linecap="round" stroke-linejoin="round"/>
</svg>
