<svg width="30" height="30" viewBox="0 0 30 30" fill="none" xmlns="http://www.w3.org/2000/svg">
<rect width="30" height="30" rx="15" fill="#F8F8F8"/>
<path d="M7.91675 13.3327C7.91675 10.19 7.91675 8.61864 8.95408 7.64233C9.99141 6.66602 11.661 6.66602 15.0001 6.66602H15.644C18.3617 6.66602 19.7205 6.66602 20.6642 7.33088C20.9346 7.52137 21.1746 7.74729 21.377 8.00176C22.0834 8.88991 22.0834 10.1688 22.0834 12.7266V14.8478C22.0834 17.3171 22.0834 18.5518 21.6926 19.5379C21.0644 21.1232 19.7358 22.3736 18.0514 22.9649C17.0037 23.3327 15.6919 23.3327 13.0683 23.3327C11.569 23.3327 10.8194 23.3327 10.2207 23.1225C9.25824 22.7846 8.49904 22.0701 8.14005 21.1642C7.91675 20.6007 7.91675 19.8952 7.91675 18.4842V13.3327Z" stroke="#222222" stroke-linejoin="round"/>
<path d="M22.0833 15C22.0833 16.5341 20.8397 17.7778 19.3056 17.7778C18.7507 17.7778 18.0966 17.6806 17.5572 17.8251C17.0779 17.9535 16.7035 18.3279 16.5751 18.8072C16.4306 19.3466 16.5278 20.0007 16.5278 20.5556C16.5278 22.0897 15.2841 23.3333 13.75 23.3333" stroke="#222222" stroke-linecap="round" stroke-linejoin="round"/>
<path d="M11.6667 10.833H17.5001" stroke="#222222" stroke-linecap="round" stroke-linejoin="round"/>
<path d="M11.6667 14.166H14.1667" stroke="#222222" stroke-linecap="round" stroke-linejoin="round"/>
</svg>
