<svg width="20" height="20" viewBox="0 0 20 20" fill="none" xmlns="http://www.w3.org/2000/svg">
<path d="M10.416 1.6665H10.6433C13.361 1.6665 14.7198 1.6665 15.6635 2.33137C15.9338 2.52186 16.1739 2.74777 16.3763 3.00224C17.0827 3.8904 17.0827 5.1693 17.0827 7.72711V9.84832C17.0827 12.3176 17.0827 13.5523 16.6919 14.5384C16.0637 16.1237 14.7351 17.3741 13.0507 17.9654C12.003 18.3332 10.6912 18.3332 8.06753 18.3332C6.56831 18.3332 5.8187 18.3332 5.22 18.123C4.25751 17.7851 3.49831 17.0706 3.13932 16.1647C2.91602 15.6012 2.91602 14.8957 2.91602 13.4847V9.99984" stroke="#01113F" stroke-linecap="round" stroke-linejoin="round"/>
<path d="M17.0833 10C17.0833 11.5341 15.8397 12.7778 14.3056 12.7778C13.7507 12.7778 13.0966 12.6806 12.5572 12.8251C12.0779 12.9535 11.7035 13.3279 11.5751 13.8072C11.4306 14.3466 11.5278 15.0007 11.5278 15.5556C11.5278 17.0897 10.2841 18.3333 8.75 18.3333" stroke="#01113F" stroke-linecap="round" stroke-linejoin="round"/>
<path d="M3.75 3.74984C4.15961 3.32842 5.24981 1.6665 5.83333 1.6665M7.91667 3.74984C7.50706 3.32842 6.41686 1.6665 5.83333 1.6665M5.83333 1.6665L5.83333 8.33317" stroke="#01113F" stroke-linecap="round" stroke-linejoin="round"/>
</svg>
