<svg width="20" height="20" viewBox="0 0 20 20" fill="none" xmlns="http://www.w3.org/2000/svg">
<g clip-path="url(#clip0_271_17282)">
<path d="M12.5 14.1667C11.8337 14.6854 10.9585 15.0001 10 15.0001C9.04146 15.0001 8.16627 14.6854 7.5 14.1667" stroke="#3A53C6" stroke-width="1.5" stroke-linecap="round"/>
<path d="M1.95933 11.0113C1.66515 9.09695 1.51805 8.13978 1.87997 7.29123C2.24189 6.44268 3.04486 5.86211 4.65079 4.70097L5.85066 3.83341C7.84841 2.38897 8.84729 1.66675 9.99984 1.66675C11.1524 1.66675 12.1513 2.38897 14.149 3.83341L15.3489 4.70097C16.9548 5.86211 17.7578 6.44268 18.1197 7.29123C18.4816 8.13978 18.3345 9.09695 18.0403 11.0113L17.7895 12.6437C17.3724 15.3575 17.1639 16.7144 16.1907 17.5239C15.2174 18.3334 13.7946 18.3334 10.9488 18.3334H9.05082C6.20511 18.3334 4.78226 18.3334 3.809 17.5239C2.83575 16.7144 2.62723 15.3575 2.21019 12.6437L1.95933 11.0113Z" stroke="#3A53C6" stroke-width="1.5" stroke-linejoin="round"/>
</g>
<defs>
<clipPath id="clip0_271_17282">
<rect width="20" height="20" fill="white"/>
</clipPath>
</defs>
</svg>
