<svg width="20" height="20" viewBox="0 0 20 20" fill="none" xmlns="http://www.w3.org/2000/svg">
<path d="M11.2143 16C11.6482 16 12.0137 16.3647 11.8477 16.7656C11.7472 17.0082 11.5997 17.2284 11.4141 17.4141C11.2284 17.5997 11.0082 17.7471 10.7656 17.8477C10.523 17.9482 10.2626 18 10 18C9.73736 18 9.47703 17.9482 9.23438 17.8477C8.99182 17.7472 8.77159 17.5997 8.58594 17.4141C8.40029 17.2284 8.25285 17.0082 8.15234 16.7656C7.98629 16.3647 8.35175 16 8.78567 16H11.2143ZM10 2C10.5523 2.00002 11 2.44773 11 3C11 3.05378 11.0385 3.09982 11.0912 3.11058C13.4109 3.58427 15.2112 5.53817 15.415 7.98242L15.8191 12.8336C15.827 12.9276 15.9056 13 16 13L16.1025 13.0049C16.6067 13.0562 17 13.4823 17 14C17 14.5177 16.6067 14.9438 16.1025 14.9951L16 15H4C3.44772 15 3 14.5523 3 14C3 13.4477 3.44772 13 4 13C4.09439 13 4.17302 12.9276 4.18085 12.8336L4.58496 7.98242C4.78879 5.53815 6.58911 3.58425 8.90879 3.11058C8.96148 3.09982 9 3.05378 9 3C9 2.44772 9.44772 2 10 2Z" fill="#3A53C6"/>
<circle cx="16" cy="4" r="3.5" fill="#FF0000" stroke="#DCEDFF"/>
</svg>
