<svg width="21" height="19" viewBox="0 0 21 19" fill="none" xmlns="http://www.w3.org/2000/svg">
<path d="M0.5 9.5C0.5 5.81087 0.5 3.9663 1.31382 2.65877C1.6149 2.17502 1.98891 1.75427 2.41891 1.41554C3.58116 0.5 5.22077 0.5 8.5 0.5H12.5C15.7792 0.5 17.4188 0.5 18.5811 1.41554C19.0111 1.75427 19.3851 2.17502 19.6862 2.65877C20.5 3.9663 20.5 5.81087 20.5 9.5C20.5 13.1891 20.5 15.0337 19.6862 16.3412C19.3851 16.825 19.0111 17.2457 18.5811 17.5845C17.4188 18.5 15.7792 18.5 12.5 18.5H8.5C5.22077 18.5 3.58116 18.5 2.41891 17.5845C1.98891 17.2457 1.6149 16.825 1.31382 16.3412C0.5 15.0337 0.5 13.1891 0.5 9.5Z" stroke="#686868"/>
<path d="M8 0.5L8 18.5" stroke="#686868" stroke-linejoin="round"/>
<path d="M3.5 4.5H4.5M3.5 7.5H4.5" stroke="#686868" stroke-linecap="round" stroke-linejoin="round"/>
</svg>
