<svg width="22" height="22" viewBox="0 0 22 22" fill="none" xmlns="http://www.w3.org/2000/svg">
<path d="M12.75 16.75C17.1683 16.75 20.75 13.1683 20.75 8.75C20.75 4.33172 17.1683 0.75 12.75 0.75C8.33172 0.75 4.75 4.33172 4.75 8.75C4.75 13.1683 8.33172 16.75 12.75 16.75Z" stroke="#222222" stroke-width="1.5" stroke-linecap="round"/>
<path d="M1.90657 9.75C1.17523 10.8676 0.75 12.2035 0.75 13.6388C0.75 17.5662 3.93378 20.75 7.86116 20.75C9.29646 20.75 10.6324 20.3248 11.75 19.5934" stroke="#222222" stroke-width="1.5" stroke-linecap="round"/>
<path d="M13.4849 4.75C13.4849 4.33579 13.1491 4 12.7349 4C12.3207 4 11.9849 4.33579 11.9849 4.75L12.7349 4.75L13.4849 4.75ZM11.9849 12.75C11.9849 13.1642 12.3207 13.5 12.7349 13.5C13.1491 13.5 13.4849 13.1642 13.4849 12.75H12.7349H11.9849ZM13.819 7.11959C13.9004 7.52573 14.2956 7.78899 14.7017 7.7076C15.1079 7.62621 15.3711 7.23099 15.2897 6.82486L14.5543 6.97222L13.819 7.11959ZM11.4827 10.3678C11.3944 9.96312 10.9947 9.70668 10.59 9.79504C10.1853 9.88339 9.92891 10.2831 10.0173 10.6878L10.75 10.5278L11.4827 10.3678ZM12.7349 8.63495V7.88495C12.1288 7.88495 11.8728 7.76911 11.7751 7.69128C11.7161 7.64417 11.6378 7.55275 11.6378 7.25223H10.8878H10.1378C10.1378 7.84264 10.3113 8.44258 10.84 8.8641C11.3301 9.25489 11.9977 9.38495 12.7349 9.38495V8.63495ZM10.8878 7.25223H11.6378C11.6378 6.86771 12.0303 6.38906 12.7349 6.38906V5.63906V4.88906C11.3992 4.88906 10.1378 5.8549 10.1378 7.25223H10.8878ZM14.75 10.2481H14C14 10.5989 13.8782 10.7668 13.7252 10.8755C13.5342 11.0113 13.2049 11.1113 12.7349 11.1113V11.8613V12.6113C13.3778 12.6113 14.056 12.4808 14.5944 12.0981C15.1707 11.6883 15.5 11.0496 15.5 10.2481H14.75ZM12.7349 8.63495V9.38495C13.3487 9.38495 13.6488 9.49571 13.7879 9.60312C13.8837 9.67708 14 9.82295 14 10.2481H14.75H15.5C15.5 9.52102 15.2804 8.8603 14.7045 8.41575C14.172 8.00464 13.4646 7.88495 12.7349 7.88495V8.63495ZM12.7349 5.63906L13.4849 5.63906L13.4849 4.75L12.7349 4.75L11.9849 4.75L11.9849 5.63906L12.7349 5.63906ZM12.7349 11.8613H11.9849V12.75H12.7349H13.4849V11.8613H12.7349ZM12.7349 5.63906V6.38906C13.3533 6.38906 13.7494 6.7726 13.819 7.11959L14.5543 6.97222L15.2897 6.82486C15.0557 5.65692 13.9381 4.88906 12.7349 4.88906V5.63906ZM12.7349 11.8613V11.1113C11.9843 11.1113 11.5519 10.6844 11.4827 10.3678L10.75 10.5278L10.0173 10.6878C10.279 11.8864 11.498 12.6113 12.7349 12.6113V11.8613Z" fill="#222222"/>
</svg>
