<svg width="16" height="18" viewBox="0 0 16 18" fill="none" xmlns="http://www.w3.org/2000/svg">
<path d="M8 0.5H8.22727C10.9449 0.5 12.3038 0.5 13.2474 1.16486C13.5178 1.35536 13.7579 1.58127 13.9603 1.83574C14.6667 2.72389 14.6667 4.0028 14.6667 6.56061V8.68182C14.6667 11.1511 14.6667 12.3858 14.2759 13.3719C13.6477 14.9571 12.3191 16.2076 10.6347 16.7989C9.58698 17.1667 8.27516 17.1667 5.65152 17.1667C4.15229 17.1667 3.40268 17.1667 2.80398 16.9565C1.84149 16.6186 1.08229 15.9041 0.723303 14.9982C0.5 14.4347 0.5 13.7292 0.5 12.3182V8.83333" stroke="#222222" stroke-linecap="round" stroke-linejoin="round"/>
<path d="M14.6673 8.8335C14.6673 10.3676 13.4237 11.6113 11.8895 11.6113C11.3347 11.6113 10.6806 11.5141 10.1412 11.6586C9.66189 11.787 9.28751 12.1614 9.15909 12.6407C9.01455 13.1801 9.11176 13.8342 9.11176 14.3891C9.11176 15.9232 7.86811 17.1668 6.33398 17.1668" stroke="#222222" stroke-linecap="round" stroke-linejoin="round"/>
<path d="M1.33398 2.58333C1.74359 2.16192 2.83379 0.5 3.41732 0.5M5.50065 2.58333C5.09104 2.16192 4.00084 0.5 3.41732 0.5M3.41732 0.5L3.41732 7.16667" stroke="#222222" stroke-linecap="round" stroke-linejoin="round"/>
</svg>
